<svg id="Capa_1" data-name="Capa 1" xmlns="http://www.w3.org/2000/svg" viewBox="0 0 682 278.42"><defs><style>.cls-1{fill:#2d2d30;opacity:0.49;}.cls-2{fill:#fdfdfd;}</style></defs><path class="cls-1" d="M12,256.84V43.21a4.52,4.52,0,0,1,5.76-4.35c10.92,3.14,22,5.73,33.13,8,29.1,5.93,57.89,7.88,87.3,10.43,30.81,2.67,62,4.08,92.71,0,48.21-6.45,93.63-26.17,141.26-36,75.78-15.66,153.66-9,230-3,27.42,2.16,55.62,7.22,81.05,17.72A4.51,4.51,0,0,1,686,40.13V251.77a4.51,4.51,0,0,1-5.25,4.46q-20.94-3.48-42-6.44c-99.32-14.13-198-21.9-295.63,6.65-17.92,5.24-35.57,11.46-53.75,15.7-45.92,10.71-94.42,9.16-141.22,8.07-44.7-1-90.29-5.38-133.06-19.07A4.52,4.52,0,0,1,12,256.84Z" transform="translate(-3.99 -2.56)"/><path class="cls-2" d="M4,247.84V34.21a4.52,4.52,0,0,1,5.76-4.35c10.92,3.14,22,5.73,33.13,8,29.1,5.93,57.89,7.88,87.3,10.43,30.81,2.67,62,4.08,92.71,0,48.21-6.45,93.63-26.17,141.26-36,75.78-15.66,153.66-9,230-3,27.42,2.16,55.62,7.22,81.05,17.72A4.51,4.51,0,0,1,678,31.13V242.77a4.51,4.51,0,0,1-5.25,4.46q-20.94-3.48-42-6.44c-99.32-14.13-198-21.9-295.63,6.65-17.92,5.24-35.57,11.46-53.75,15.7-45.92,10.71-94.42,9.16-141.22,8.07-44.7-1-90.29-5.38-133.06-19.07A4.52,4.52,0,0,1,4,247.84Z" transform="translate(-3.99 -2.56)"/></svg>